<mxfile host="app.diagrams.net" modified="2021-10-19T04:02:37.214Z" agent="5.0 (Macintosh)" etag="NGgHavM-ObOPf9CkxC0F" version="15.5.5" type="github">
  <diagram id="mORXH_L4LPJlFaiRlJDJ" name="Golf Scorecard">
    <mxGraphModel dx="946" dy="612" grid="1" gridSize="10" guides="1" tooltips="1" connect="1" arrows="1" fold="1" page="1" pageScale="1" pageWidth="850" pageHeight="1100" math="0" shadow="0">
      <root>
        <mxCell id="0" />
        <mxCell id="1" parent="0" />
        <mxCell id="SwMHotPxSxvVI6vXc5Ti-122" value="" style="rounded=0;whiteSpace=wrap;html=1;fontSize=18;strokeWidth=1;" parent="1" vertex="1">
          <mxGeometry x="60" y="40" width="420" height="800" as="geometry" />
        </mxCell>
        <mxCell id="SwMHotPxSxvVI6vXc5Ti-2" value="+&lt;span style=&quot;white-space: pre&quot;&gt;&lt;span style=&quot;white-space: pre&quot;&gt;&lt;/span&gt;&lt;/span&gt;&lt;span style=&quot;white-space: pre&quot;&gt;&lt;/span&gt;" style="whiteSpace=wrap;html=1;aspect=fixed;fillColor=#d5e8d4;strokeColor=#82b366;" parent="1" vertex="1">
          <mxGeometry x="395" y="120" width="30" height="30" as="geometry" />
        </mxCell>
        <mxCell id="SwMHotPxSxvVI6vXc5Ti-3" value="+" style="whiteSpace=wrap;html=1;aspect=fixed;fillColor=#d5e8d4;strokeColor=#82b366;" parent="1" vertex="1">
          <mxGeometry x="395" y="160" width="30" height="30" as="geometry" />
        </mxCell>
        <mxCell id="SwMHotPxSxvVI6vXc5Ti-4" value="+" style="whiteSpace=wrap;html=1;aspect=fixed;fillColor=#d5e8d4;strokeColor=#82b366;" parent="1" vertex="1">
          <mxGeometry x="395" y="200" width="30" height="30" as="geometry" />
        </mxCell>
        <mxCell id="SwMHotPxSxvVI6vXc5Ti-5" value="+" style="whiteSpace=wrap;html=1;aspect=fixed;fillColor=#d5e8d4;strokeColor=#82b366;" parent="1" vertex="1">
          <mxGeometry x="395" y="240" width="30" height="30" as="geometry" />
        </mxCell>
        <mxCell id="SwMHotPxSxvVI6vXc5Ti-6" value="+" style="whiteSpace=wrap;html=1;aspect=fixed;fillColor=#d5e8d4;strokeColor=#82b366;" parent="1" vertex="1">
          <mxGeometry x="395" y="800" width="30" height="30" as="geometry" />
        </mxCell>
        <mxCell id="SwMHotPxSxvVI6vXc5Ti-7" value="+" style="whiteSpace=wrap;html=1;aspect=fixed;fillColor=#d5e8d4;strokeColor=#82b366;" parent="1" vertex="1">
          <mxGeometry x="395" y="760" width="30" height="30" as="geometry" />
        </mxCell>
        <mxCell id="SwMHotPxSxvVI6vXc5Ti-8" value="+" style="whiteSpace=wrap;html=1;aspect=fixed;fillColor=#d5e8d4;strokeColor=#82b366;" parent="1" vertex="1">
          <mxGeometry x="395" y="720" width="30" height="30" as="geometry" />
        </mxCell>
        <mxCell id="SwMHotPxSxvVI6vXc5Ti-9" value="+" style="whiteSpace=wrap;html=1;aspect=fixed;fillColor=#d5e8d4;strokeColor=#82b366;" parent="1" vertex="1">
          <mxGeometry x="395" y="680" width="30" height="30" as="geometry" />
        </mxCell>
        <mxCell id="SwMHotPxSxvVI6vXc5Ti-10" value="+" style="whiteSpace=wrap;html=1;aspect=fixed;fillColor=#d5e8d4;strokeColor=#82b366;" parent="1" vertex="1">
          <mxGeometry x="395" y="640" width="30" height="30" as="geometry" />
        </mxCell>
        <mxCell id="SwMHotPxSxvVI6vXc5Ti-11" value="+" style="whiteSpace=wrap;html=1;aspect=fixed;fillColor=#d5e8d4;strokeColor=#82b366;" parent="1" vertex="1">
          <mxGeometry x="395" y="600" width="30" height="30" as="geometry" />
        </mxCell>
        <mxCell id="SwMHotPxSxvVI6vXc5Ti-12" value="+" style="whiteSpace=wrap;html=1;aspect=fixed;fillColor=#d5e8d4;strokeColor=#82b366;" parent="1" vertex="1">
          <mxGeometry x="395" y="560" width="30" height="30" as="geometry" />
        </mxCell>
        <mxCell id="SwMHotPxSxvVI6vXc5Ti-13" value="+" style="whiteSpace=wrap;html=1;aspect=fixed;fillColor=#d5e8d4;strokeColor=#82b366;" parent="1" vertex="1">
          <mxGeometry x="395" y="520" width="30" height="30" as="geometry" />
        </mxCell>
        <mxCell id="SwMHotPxSxvVI6vXc5Ti-14" value="+" style="whiteSpace=wrap;html=1;aspect=fixed;fillColor=#d5e8d4;strokeColor=#82b366;" parent="1" vertex="1">
          <mxGeometry x="395" y="480" width="30" height="30" as="geometry" />
        </mxCell>
        <mxCell id="SwMHotPxSxvVI6vXc5Ti-15" value="+" style="whiteSpace=wrap;html=1;aspect=fixed;fillColor=#d5e8d4;strokeColor=#82b366;" parent="1" vertex="1">
          <mxGeometry x="395" y="440" width="30" height="30" as="geometry" />
        </mxCell>
        <mxCell id="SwMHotPxSxvVI6vXc5Ti-16" value="+" style="whiteSpace=wrap;html=1;aspect=fixed;fillColor=#d5e8d4;strokeColor=#82b366;" parent="1" vertex="1">
          <mxGeometry x="395" y="400" width="30" height="30" as="geometry" />
        </mxCell>
        <mxCell id="SwMHotPxSxvVI6vXc5Ti-17" value="+" style="whiteSpace=wrap;html=1;aspect=fixed;fillColor=#d5e8d4;strokeColor=#82b366;" parent="1" vertex="1">
          <mxGeometry x="395" y="360" width="30" height="30" as="geometry" />
        </mxCell>
        <mxCell id="SwMHotPxSxvVI6vXc5Ti-18" value="+" style="whiteSpace=wrap;html=1;aspect=fixed;fillColor=#d5e8d4;strokeColor=#82b366;" parent="1" vertex="1">
          <mxGeometry x="395" y="320" width="30" height="30" as="geometry" />
        </mxCell>
        <mxCell id="SwMHotPxSxvVI6vXc5Ti-19" value="+" style="whiteSpace=wrap;html=1;aspect=fixed;fillColor=#d5e8d4;strokeColor=#82b366;" parent="1" vertex="1">
          <mxGeometry x="395" y="280" width="30" height="30" as="geometry" />
        </mxCell>
        <mxCell id="SwMHotPxSxvVI6vXc5Ti-25" value="-" style="whiteSpace=wrap;html=1;aspect=fixed;fillColor=#f8cecc;strokeColor=#b85450;" parent="1" vertex="1">
          <mxGeometry x="435" y="120" width="30" height="30" as="geometry" />
        </mxCell>
        <mxCell id="SwMHotPxSxvVI6vXc5Ti-26" value="-" style="whiteSpace=wrap;html=1;aspect=fixed;fillColor=#f8cecc;strokeColor=#b85450;" parent="1" vertex="1">
          <mxGeometry x="435" y="160" width="30" height="30" as="geometry" />
        </mxCell>
        <mxCell id="SwMHotPxSxvVI6vXc5Ti-27" value="-" style="whiteSpace=wrap;html=1;aspect=fixed;fillColor=#f8cecc;strokeColor=#b85450;" parent="1" vertex="1">
          <mxGeometry x="435" y="200" width="30" height="30" as="geometry" />
        </mxCell>
        <mxCell id="SwMHotPxSxvVI6vXc5Ti-28" value="-" style="whiteSpace=wrap;html=1;aspect=fixed;fillColor=#f8cecc;strokeColor=#b85450;" parent="1" vertex="1">
          <mxGeometry x="435" y="240" width="30" height="30" as="geometry" />
        </mxCell>
        <mxCell id="SwMHotPxSxvVI6vXc5Ti-29" value="-" style="whiteSpace=wrap;html=1;aspect=fixed;fillColor=#f8cecc;strokeColor=#b85450;" parent="1" vertex="1">
          <mxGeometry x="435" y="800" width="30" height="30" as="geometry" />
        </mxCell>
        <mxCell id="SwMHotPxSxvVI6vXc5Ti-30" value="-" style="whiteSpace=wrap;html=1;aspect=fixed;fillColor=#f8cecc;strokeColor=#b85450;" parent="1" vertex="1">
          <mxGeometry x="435" y="760" width="30" height="30" as="geometry" />
        </mxCell>
        <mxCell id="SwMHotPxSxvVI6vXc5Ti-31" value="-" style="whiteSpace=wrap;html=1;aspect=fixed;fillColor=#f8cecc;strokeColor=#b85450;" parent="1" vertex="1">
          <mxGeometry x="435" y="720" width="30" height="30" as="geometry" />
        </mxCell>
        <mxCell id="SwMHotPxSxvVI6vXc5Ti-32" value="-" style="whiteSpace=wrap;html=1;aspect=fixed;fillColor=#f8cecc;strokeColor=#b85450;" parent="1" vertex="1">
          <mxGeometry x="435" y="680" width="30" height="30" as="geometry" />
        </mxCell>
        <mxCell id="SwMHotPxSxvVI6vXc5Ti-33" value="-" style="whiteSpace=wrap;html=1;aspect=fixed;fillColor=#f8cecc;strokeColor=#b85450;" parent="1" vertex="1">
          <mxGeometry x="435" y="640" width="30" height="30" as="geometry" />
        </mxCell>
        <mxCell id="SwMHotPxSxvVI6vXc5Ti-34" value="-" style="whiteSpace=wrap;html=1;aspect=fixed;fillColor=#f8cecc;strokeColor=#b85450;" parent="1" vertex="1">
          <mxGeometry x="435" y="600" width="30" height="30" as="geometry" />
        </mxCell>
        <mxCell id="SwMHotPxSxvVI6vXc5Ti-35" value="-" style="whiteSpace=wrap;html=1;aspect=fixed;fillColor=#f8cecc;strokeColor=#b85450;" parent="1" vertex="1">
          <mxGeometry x="435" y="560" width="30" height="30" as="geometry" />
        </mxCell>
        <mxCell id="SwMHotPxSxvVI6vXc5Ti-36" value="-" style="whiteSpace=wrap;html=1;aspect=fixed;fillColor=#f8cecc;strokeColor=#b85450;" parent="1" vertex="1">
          <mxGeometry x="435" y="520" width="30" height="30" as="geometry" />
        </mxCell>
        <mxCell id="SwMHotPxSxvVI6vXc5Ti-37" value="-" style="whiteSpace=wrap;html=1;aspect=fixed;fillColor=#f8cecc;strokeColor=#b85450;" parent="1" vertex="1">
          <mxGeometry x="435" y="480" width="30" height="30" as="geometry" />
        </mxCell>
        <mxCell id="SwMHotPxSxvVI6vXc5Ti-38" value="-" style="whiteSpace=wrap;html=1;aspect=fixed;fillColor=#f8cecc;strokeColor=#b85450;" parent="1" vertex="1">
          <mxGeometry x="435" y="440" width="30" height="30" as="geometry" />
        </mxCell>
        <mxCell id="SwMHotPxSxvVI6vXc5Ti-39" value="-" style="whiteSpace=wrap;html=1;aspect=fixed;fillColor=#f8cecc;strokeColor=#b85450;" parent="1" vertex="1">
          <mxGeometry x="435" y="400" width="30" height="30" as="geometry" />
        </mxCell>
        <mxCell id="SwMHotPxSxvVI6vXc5Ti-40" value="-" style="whiteSpace=wrap;html=1;aspect=fixed;fillColor=#f8cecc;strokeColor=#b85450;" parent="1" vertex="1">
          <mxGeometry x="435" y="360" width="30" height="30" as="geometry" />
        </mxCell>
        <mxCell id="SwMHotPxSxvVI6vXc5Ti-41" value="-" style="whiteSpace=wrap;html=1;aspect=fixed;fillColor=#f8cecc;strokeColor=#b85450;" parent="1" vertex="1">
          <mxGeometry x="435" y="320" width="30" height="30" as="geometry" />
        </mxCell>
        <mxCell id="SwMHotPxSxvVI6vXc5Ti-42" value="-" style="whiteSpace=wrap;html=1;aspect=fixed;fillColor=#f8cecc;strokeColor=#b85450;" parent="1" vertex="1">
          <mxGeometry x="435" y="280" width="30" height="30" as="geometry" />
        </mxCell>
        <mxCell id="SwMHotPxSxvVI6vXc5Ti-43" value="Golf Scorecard" style="text;html=1;strokeColor=none;fillColor=none;align=center;verticalAlign=middle;whiteSpace=wrap;rounded=0;strokeWidth=1;fontSize=37;" parent="1" vertex="1">
          <mxGeometry x="50" y="60" width="440" height="30" as="geometry" />
        </mxCell>
        <mxCell id="SwMHotPxSxvVI6vXc5Ti-44" value="Hole" style="text;html=1;strokeColor=none;fillColor=none;align=center;verticalAlign=middle;whiteSpace=wrap;rounded=0;fontSize=18;" parent="1" vertex="1">
          <mxGeometry x="60" y="90" width="60" height="30" as="geometry" />
        </mxCell>
        <mxCell id="SwMHotPxSxvVI6vXc5Ti-45" value="Par" style="text;html=1;align=center;verticalAlign=middle;resizable=0;points=[];autosize=1;strokeColor=none;fillColor=none;fontSize=18;" parent="1" vertex="1">
          <mxGeometry x="150" y="90" width="40" height="30" as="geometry" />
        </mxCell>
        <mxCell id="SwMHotPxSxvVI6vXc5Ti-46" value="Score" style="text;html=1;align=center;verticalAlign=middle;resizable=0;points=[];autosize=1;strokeColor=none;fillColor=none;fontSize=18;" parent="1" vertex="1">
          <mxGeometry x="220" y="90" width="60" height="30" as="geometry" />
        </mxCell>
        <mxCell id="SwMHotPxSxvVI6vXc5Ti-47" value="Over" style="text;html=1;strokeColor=none;fillColor=none;align=center;verticalAlign=middle;whiteSpace=wrap;rounded=0;fontSize=18;" parent="1" vertex="1">
          <mxGeometry x="300" y="90" width="60" height="30" as="geometry" />
        </mxCell>
        <mxCell id="SwMHotPxSxvVI6vXc5Ti-48" value="Actions" style="text;html=1;strokeColor=none;fillColor=none;align=center;verticalAlign=middle;whiteSpace=wrap;rounded=0;fontSize=18;" parent="1" vertex="1">
          <mxGeometry x="400" y="90" width="60" height="30" as="geometry" />
        </mxCell>
        <mxCell id="SwMHotPxSxvVI6vXc5Ti-50" value="18" style="text;html=1;strokeColor=none;fillColor=none;align=center;verticalAlign=middle;whiteSpace=wrap;rounded=0;fontSize=18;" parent="1" vertex="1">
          <mxGeometry x="60" y="800" width="60" height="30" as="geometry" />
        </mxCell>
        <mxCell id="SwMHotPxSxvVI6vXc5Ti-51" value="17" style="text;html=1;strokeColor=none;fillColor=none;align=center;verticalAlign=middle;whiteSpace=wrap;rounded=0;fontSize=18;" parent="1" vertex="1">
          <mxGeometry x="60" y="760" width="60" height="30" as="geometry" />
        </mxCell>
        <mxCell id="SwMHotPxSxvVI6vXc5Ti-52" value="16" style="text;html=1;strokeColor=none;fillColor=none;align=center;verticalAlign=middle;whiteSpace=wrap;rounded=0;fontSize=18;" parent="1" vertex="1">
          <mxGeometry x="60" y="720" width="60" height="30" as="geometry" />
        </mxCell>
        <mxCell id="SwMHotPxSxvVI6vXc5Ti-53" value="15" style="text;html=1;strokeColor=none;fillColor=none;align=center;verticalAlign=middle;whiteSpace=wrap;rounded=0;fontSize=18;" parent="1" vertex="1">
          <mxGeometry x="60" y="680" width="60" height="30" as="geometry" />
        </mxCell>
        <mxCell id="SwMHotPxSxvVI6vXc5Ti-54" value="14" style="text;html=1;strokeColor=none;fillColor=none;align=center;verticalAlign=middle;whiteSpace=wrap;rounded=0;fontSize=18;" parent="1" vertex="1">
          <mxGeometry x="60" y="640" width="60" height="30" as="geometry" />
        </mxCell>
        <mxCell id="SwMHotPxSxvVI6vXc5Ti-55" value="13" style="text;html=1;strokeColor=none;fillColor=none;align=center;verticalAlign=middle;whiteSpace=wrap;rounded=0;fontSize=18;" parent="1" vertex="1">
          <mxGeometry x="60" y="600" width="60" height="30" as="geometry" />
        </mxCell>
        <mxCell id="SwMHotPxSxvVI6vXc5Ti-56" value="12" style="text;html=1;strokeColor=none;fillColor=none;align=center;verticalAlign=middle;whiteSpace=wrap;rounded=0;fontSize=18;" parent="1" vertex="1">
          <mxGeometry x="60" y="560" width="60" height="30" as="geometry" />
        </mxCell>
        <mxCell id="SwMHotPxSxvVI6vXc5Ti-57" value="11" style="text;html=1;strokeColor=none;fillColor=none;align=center;verticalAlign=middle;whiteSpace=wrap;rounded=0;fontSize=18;" parent="1" vertex="1">
          <mxGeometry x="60" y="520" width="60" height="30" as="geometry" />
        </mxCell>
        <mxCell id="SwMHotPxSxvVI6vXc5Ti-58" value="10" style="text;html=1;strokeColor=none;fillColor=none;align=center;verticalAlign=middle;whiteSpace=wrap;rounded=0;fontSize=18;" parent="1" vertex="1">
          <mxGeometry x="60" y="480" width="60" height="30" as="geometry" />
        </mxCell>
        <mxCell id="SwMHotPxSxvVI6vXc5Ti-59" value="9" style="text;html=1;strokeColor=none;fillColor=none;align=center;verticalAlign=middle;whiteSpace=wrap;rounded=0;fontSize=18;" parent="1" vertex="1">
          <mxGeometry x="60" y="440" width="60" height="30" as="geometry" />
        </mxCell>
        <mxCell id="SwMHotPxSxvVI6vXc5Ti-60" value="8" style="text;html=1;strokeColor=none;fillColor=none;align=center;verticalAlign=middle;whiteSpace=wrap;rounded=0;fontSize=18;" parent="1" vertex="1">
          <mxGeometry x="60" y="400" width="60" height="30" as="geometry" />
        </mxCell>
        <mxCell id="SwMHotPxSxvVI6vXc5Ti-61" value="7" style="text;html=1;strokeColor=none;fillColor=none;align=center;verticalAlign=middle;whiteSpace=wrap;rounded=0;fontSize=18;" parent="1" vertex="1">
          <mxGeometry x="60" y="360" width="60" height="30" as="geometry" />
        </mxCell>
        <mxCell id="SwMHotPxSxvVI6vXc5Ti-62" value="6" style="text;html=1;strokeColor=none;fillColor=none;align=center;verticalAlign=middle;whiteSpace=wrap;rounded=0;fontSize=18;" parent="1" vertex="1">
          <mxGeometry x="60" y="320" width="60" height="30" as="geometry" />
        </mxCell>
        <mxCell id="SwMHotPxSxvVI6vXc5Ti-63" value="5" style="text;html=1;strokeColor=none;fillColor=none;align=center;verticalAlign=middle;whiteSpace=wrap;rounded=0;fontSize=18;" parent="1" vertex="1">
          <mxGeometry x="60" y="280" width="60" height="30" as="geometry" />
        </mxCell>
        <mxCell id="SwMHotPxSxvVI6vXc5Ti-64" value="4" style="text;html=1;strokeColor=none;fillColor=none;align=center;verticalAlign=middle;whiteSpace=wrap;rounded=0;fontSize=18;" parent="1" vertex="1">
          <mxGeometry x="60" y="240" width="60" height="30" as="geometry" />
        </mxCell>
        <mxCell id="SwMHotPxSxvVI6vXc5Ti-65" value="3" style="text;html=1;strokeColor=none;fillColor=none;align=center;verticalAlign=middle;whiteSpace=wrap;rounded=0;fontSize=18;" parent="1" vertex="1">
          <mxGeometry x="60" y="200" width="60" height="30" as="geometry" />
        </mxCell>
        <mxCell id="SwMHotPxSxvVI6vXc5Ti-66" value="2" style="text;html=1;strokeColor=none;fillColor=none;align=center;verticalAlign=middle;whiteSpace=wrap;rounded=0;fontSize=18;" parent="1" vertex="1">
          <mxGeometry x="60" y="160" width="60" height="30" as="geometry" />
        </mxCell>
        <mxCell id="SwMHotPxSxvVI6vXc5Ti-67" value="1" style="text;html=1;strokeColor=none;fillColor=none;align=center;verticalAlign=middle;whiteSpace=wrap;rounded=0;fontSize=18;" parent="1" vertex="1">
          <mxGeometry x="60" y="120" width="60" height="30" as="geometry" />
        </mxCell>
        <mxCell id="SwMHotPxSxvVI6vXc5Ti-68" value="4" style="text;html=1;strokeColor=none;fillColor=none;align=center;verticalAlign=middle;whiteSpace=wrap;rounded=0;fontSize=18;" parent="1" vertex="1">
          <mxGeometry x="140" y="120" width="60" height="30" as="geometry" />
        </mxCell>
        <mxCell id="SwMHotPxSxvVI6vXc5Ti-69" value="4" style="text;html=1;strokeColor=none;fillColor=none;align=center;verticalAlign=middle;whiteSpace=wrap;rounded=0;fontSize=18;" parent="1" vertex="1">
          <mxGeometry x="140" y="400" width="60" height="30" as="geometry" />
        </mxCell>
        <mxCell id="SwMHotPxSxvVI6vXc5Ti-70" value="4" style="text;html=1;strokeColor=none;fillColor=none;align=center;verticalAlign=middle;whiteSpace=wrap;rounded=0;fontSize=18;" parent="1" vertex="1">
          <mxGeometry x="140" y="360" width="60" height="30" as="geometry" />
        </mxCell>
        <mxCell id="SwMHotPxSxvVI6vXc5Ti-71" value="4" style="text;html=1;strokeColor=none;fillColor=none;align=center;verticalAlign=middle;whiteSpace=wrap;rounded=0;fontSize=18;" parent="1" vertex="1">
          <mxGeometry x="140" y="320" width="60" height="30" as="geometry" />
        </mxCell>
        <mxCell id="SwMHotPxSxvVI6vXc5Ti-72" value="4" style="text;html=1;strokeColor=none;fillColor=none;align=center;verticalAlign=middle;whiteSpace=wrap;rounded=0;fontSize=18;" parent="1" vertex="1">
          <mxGeometry x="140" y="280" width="60" height="30" as="geometry" />
        </mxCell>
        <mxCell id="SwMHotPxSxvVI6vXc5Ti-73" value="4" style="text;html=1;strokeColor=none;fillColor=none;align=center;verticalAlign=middle;whiteSpace=wrap;rounded=0;fontSize=18;" parent="1" vertex="1">
          <mxGeometry x="140" y="240" width="60" height="30" as="geometry" />
        </mxCell>
        <mxCell id="SwMHotPxSxvVI6vXc5Ti-74" value="4" style="text;html=1;strokeColor=none;fillColor=none;align=center;verticalAlign=middle;whiteSpace=wrap;rounded=0;fontSize=18;" parent="1" vertex="1">
          <mxGeometry x="140" y="200" width="60" height="30" as="geometry" />
        </mxCell>
        <mxCell id="SwMHotPxSxvVI6vXc5Ti-75" value="4" style="text;html=1;strokeColor=none;fillColor=none;align=center;verticalAlign=middle;whiteSpace=wrap;rounded=0;fontSize=18;" parent="1" vertex="1">
          <mxGeometry x="140" y="160" width="60" height="30" as="geometry" />
        </mxCell>
        <mxCell id="SwMHotPxSxvVI6vXc5Ti-76" value="4" style="text;html=1;strokeColor=none;fillColor=none;align=center;verticalAlign=middle;whiteSpace=wrap;rounded=0;fontSize=18;" parent="1" vertex="1">
          <mxGeometry x="140" y="520" width="60" height="30" as="geometry" />
        </mxCell>
        <mxCell id="SwMHotPxSxvVI6vXc5Ti-77" value="4" style="text;html=1;strokeColor=none;fillColor=none;align=center;verticalAlign=middle;whiteSpace=wrap;rounded=0;fontSize=18;" parent="1" vertex="1">
          <mxGeometry x="140" y="560" width="60" height="30" as="geometry" />
        </mxCell>
        <mxCell id="SwMHotPxSxvVI6vXc5Ti-78" value="4" style="text;html=1;strokeColor=none;fillColor=none;align=center;verticalAlign=middle;whiteSpace=wrap;rounded=0;fontSize=18;" parent="1" vertex="1">
          <mxGeometry x="140" y="600" width="60" height="30" as="geometry" />
        </mxCell>
        <mxCell id="SwMHotPxSxvVI6vXc5Ti-79" value="4" style="text;html=1;strokeColor=none;fillColor=none;align=center;verticalAlign=middle;whiteSpace=wrap;rounded=0;fontSize=18;" parent="1" vertex="1">
          <mxGeometry x="140" y="640" width="60" height="30" as="geometry" />
        </mxCell>
        <mxCell id="SwMHotPxSxvVI6vXc5Ti-80" value="4" style="text;html=1;strokeColor=none;fillColor=none;align=center;verticalAlign=middle;whiteSpace=wrap;rounded=0;fontSize=18;" parent="1" vertex="1">
          <mxGeometry x="140" y="680" width="60" height="30" as="geometry" />
        </mxCell>
        <mxCell id="SwMHotPxSxvVI6vXc5Ti-81" value="4" style="text;html=1;strokeColor=none;fillColor=none;align=center;verticalAlign=middle;whiteSpace=wrap;rounded=0;fontSize=18;" parent="1" vertex="1">
          <mxGeometry x="140" y="720" width="60" height="30" as="geometry" />
        </mxCell>
        <mxCell id="SwMHotPxSxvVI6vXc5Ti-82" value="4" style="text;html=1;strokeColor=none;fillColor=none;align=center;verticalAlign=middle;whiteSpace=wrap;rounded=0;fontSize=18;" parent="1" vertex="1">
          <mxGeometry x="140" y="760" width="60" height="30" as="geometry" />
        </mxCell>
        <mxCell id="SwMHotPxSxvVI6vXc5Ti-83" value="4" style="text;html=1;strokeColor=none;fillColor=none;align=center;verticalAlign=middle;whiteSpace=wrap;rounded=0;fontSize=18;" parent="1" vertex="1">
          <mxGeometry x="140" y="480" width="60" height="30" as="geometry" />
        </mxCell>
        <mxCell id="SwMHotPxSxvVI6vXc5Ti-84" value="4" style="text;html=1;strokeColor=none;fillColor=none;align=center;verticalAlign=middle;whiteSpace=wrap;rounded=0;fontSize=18;" parent="1" vertex="1">
          <mxGeometry x="140" y="440" width="60" height="30" as="geometry" />
        </mxCell>
        <mxCell id="SwMHotPxSxvVI6vXc5Ti-85" value="4" style="text;html=1;strokeColor=none;fillColor=none;align=center;verticalAlign=middle;whiteSpace=wrap;rounded=0;fontSize=18;" parent="1" vertex="1">
          <mxGeometry x="140" y="800" width="60" height="30" as="geometry" />
        </mxCell>
        <mxCell id="SwMHotPxSxvVI6vXc5Ti-86" value="-" style="text;html=1;align=center;verticalAlign=middle;resizable=0;points=[];autosize=1;strokeColor=none;fillColor=none;fontSize=18;" parent="1" vertex="1">
          <mxGeometry x="240" y="115" width="20" height="30" as="geometry" />
        </mxCell>
        <mxCell id="SwMHotPxSxvVI6vXc5Ti-87" value="-" style="text;html=1;align=center;verticalAlign=middle;resizable=0;points=[];autosize=1;strokeColor=none;fillColor=none;fontSize=18;" parent="1" vertex="1">
          <mxGeometry x="240" y="200" width="20" height="30" as="geometry" />
        </mxCell>
        <mxCell id="SwMHotPxSxvVI6vXc5Ti-88" value="-" style="text;html=1;align=center;verticalAlign=middle;resizable=0;points=[];autosize=1;strokeColor=none;fillColor=none;fontSize=18;" parent="1" vertex="1">
          <mxGeometry x="240" y="160" width="20" height="30" as="geometry" />
        </mxCell>
        <mxCell id="SwMHotPxSxvVI6vXc5Ti-89" value="-" style="text;html=1;align=center;verticalAlign=middle;resizable=0;points=[];autosize=1;strokeColor=none;fillColor=none;fontSize=18;" parent="1" vertex="1">
          <mxGeometry x="240" y="400" width="20" height="30" as="geometry" />
        </mxCell>
        <mxCell id="SwMHotPxSxvVI6vXc5Ti-90" value="-" style="text;html=1;align=center;verticalAlign=middle;resizable=0;points=[];autosize=1;strokeColor=none;fillColor=none;fontSize=18;" parent="1" vertex="1">
          <mxGeometry x="240" y="360" width="20" height="30" as="geometry" />
        </mxCell>
        <mxCell id="SwMHotPxSxvVI6vXc5Ti-91" value="-" style="text;html=1;align=center;verticalAlign=middle;resizable=0;points=[];autosize=1;strokeColor=none;fillColor=none;fontSize=18;" parent="1" vertex="1">
          <mxGeometry x="240" y="480" width="20" height="30" as="geometry" />
        </mxCell>
        <mxCell id="SwMHotPxSxvVI6vXc5Ti-92" value="-" style="text;html=1;align=center;verticalAlign=middle;resizable=0;points=[];autosize=1;strokeColor=none;fillColor=none;fontSize=18;" parent="1" vertex="1">
          <mxGeometry x="240" y="440" width="20" height="30" as="geometry" />
        </mxCell>
        <mxCell id="SwMHotPxSxvVI6vXc5Ti-93" value="-" style="text;html=1;align=center;verticalAlign=middle;resizable=0;points=[];autosize=1;strokeColor=none;fillColor=none;fontSize=18;" parent="1" vertex="1">
          <mxGeometry x="240" y="320" width="20" height="30" as="geometry" />
        </mxCell>
        <mxCell id="SwMHotPxSxvVI6vXc5Ti-94" value="-" style="text;html=1;align=center;verticalAlign=middle;resizable=0;points=[];autosize=1;strokeColor=none;fillColor=none;fontSize=18;" parent="1" vertex="1">
          <mxGeometry x="240" y="280" width="20" height="30" as="geometry" />
        </mxCell>
        <mxCell id="SwMHotPxSxvVI6vXc5Ti-95" value="-" style="text;html=1;align=center;verticalAlign=middle;resizable=0;points=[];autosize=1;strokeColor=none;fillColor=none;fontSize=18;" parent="1" vertex="1">
          <mxGeometry x="240" y="240" width="20" height="30" as="geometry" />
        </mxCell>
        <mxCell id="SwMHotPxSxvVI6vXc5Ti-96" value="-" style="text;html=1;align=center;verticalAlign=middle;resizable=0;points=[];autosize=1;strokeColor=none;fillColor=none;fontSize=18;" parent="1" vertex="1">
          <mxGeometry x="240" y="600" width="20" height="30" as="geometry" />
        </mxCell>
        <mxCell id="SwMHotPxSxvVI6vXc5Ti-97" value="-" style="text;html=1;align=center;verticalAlign=middle;resizable=0;points=[];autosize=1;strokeColor=none;fillColor=none;fontSize=18;" parent="1" vertex="1">
          <mxGeometry x="240" y="560" width="20" height="30" as="geometry" />
        </mxCell>
        <mxCell id="SwMHotPxSxvVI6vXc5Ti-98" value="-" style="text;html=1;align=center;verticalAlign=middle;resizable=0;points=[];autosize=1;strokeColor=none;fillColor=none;fontSize=18;" parent="1" vertex="1">
          <mxGeometry x="240" y="520" width="20" height="30" as="geometry" />
        </mxCell>
        <mxCell id="SwMHotPxSxvVI6vXc5Ti-99" value="-" style="text;html=1;align=center;verticalAlign=middle;resizable=0;points=[];autosize=1;strokeColor=none;fillColor=none;fontSize=18;" parent="1" vertex="1">
          <mxGeometry x="240" y="720" width="20" height="30" as="geometry" />
        </mxCell>
        <mxCell id="SwMHotPxSxvVI6vXc5Ti-100" value="-" style="text;html=1;align=center;verticalAlign=middle;resizable=0;points=[];autosize=1;strokeColor=none;fillColor=none;fontSize=18;" parent="1" vertex="1">
          <mxGeometry x="240" y="680" width="20" height="30" as="geometry" />
        </mxCell>
        <mxCell id="SwMHotPxSxvVI6vXc5Ti-101" value="-" style="text;html=1;align=center;verticalAlign=middle;resizable=0;points=[];autosize=1;strokeColor=none;fillColor=none;fontSize=18;" parent="1" vertex="1">
          <mxGeometry x="240" y="640" width="20" height="30" as="geometry" />
        </mxCell>
        <mxCell id="SwMHotPxSxvVI6vXc5Ti-102" value="-" style="text;html=1;align=center;verticalAlign=middle;resizable=0;points=[];autosize=1;strokeColor=none;fillColor=none;fontSize=18;" parent="1" vertex="1">
          <mxGeometry x="240" y="760" width="20" height="30" as="geometry" />
        </mxCell>
        <mxCell id="SwMHotPxSxvVI6vXc5Ti-103" value="-" style="text;html=1;align=center;verticalAlign=middle;resizable=0;points=[];autosize=1;strokeColor=none;fillColor=none;fontSize=18;" parent="1" vertex="1">
          <mxGeometry x="240" y="800" width="20" height="30" as="geometry" />
        </mxCell>
        <mxCell id="SwMHotPxSxvVI6vXc5Ti-104" value="-" style="text;html=1;align=center;verticalAlign=middle;resizable=0;points=[];autosize=1;strokeColor=none;fillColor=none;fontSize=18;" parent="1" vertex="1">
          <mxGeometry x="320" y="160" width="20" height="30" as="geometry" />
        </mxCell>
        <mxCell id="SwMHotPxSxvVI6vXc5Ti-105" value="-" style="text;html=1;align=center;verticalAlign=middle;resizable=0;points=[];autosize=1;strokeColor=none;fillColor=none;fontSize=18;" parent="1" vertex="1">
          <mxGeometry x="320" y="120" width="20" height="30" as="geometry" />
        </mxCell>
        <mxCell id="SwMHotPxSxvVI6vXc5Ti-106" value="-" style="text;html=1;align=center;verticalAlign=middle;resizable=0;points=[];autosize=1;strokeColor=none;fillColor=none;fontSize=18;" parent="1" vertex="1">
          <mxGeometry x="320" y="200" width="20" height="30" as="geometry" />
        </mxCell>
        <mxCell id="SwMHotPxSxvVI6vXc5Ti-107" value="-" style="text;html=1;align=center;verticalAlign=middle;resizable=0;points=[];autosize=1;strokeColor=none;fillColor=none;fontSize=18;" parent="1" vertex="1">
          <mxGeometry x="320" y="240" width="20" height="30" as="geometry" />
        </mxCell>
        <mxCell id="SwMHotPxSxvVI6vXc5Ti-108" value="-" style="text;html=1;align=center;verticalAlign=middle;resizable=0;points=[];autosize=1;strokeColor=none;fillColor=none;fontSize=18;" parent="1" vertex="1">
          <mxGeometry x="320" y="280" width="20" height="30" as="geometry" />
        </mxCell>
        <mxCell id="SwMHotPxSxvVI6vXc5Ti-109" value="-" style="text;html=1;align=center;verticalAlign=middle;resizable=0;points=[];autosize=1;strokeColor=none;fillColor=none;fontSize=18;" parent="1" vertex="1">
          <mxGeometry x="320" y="320" width="20" height="30" as="geometry" />
        </mxCell>
        <mxCell id="SwMHotPxSxvVI6vXc5Ti-110" value="-" style="text;html=1;align=center;verticalAlign=middle;resizable=0;points=[];autosize=1;strokeColor=none;fillColor=none;fontSize=18;" parent="1" vertex="1">
          <mxGeometry x="320" y="360" width="20" height="30" as="geometry" />
        </mxCell>
        <mxCell id="SwMHotPxSxvVI6vXc5Ti-111" value="-" style="text;html=1;align=center;verticalAlign=middle;resizable=0;points=[];autosize=1;strokeColor=none;fillColor=none;fontSize=18;" parent="1" vertex="1">
          <mxGeometry x="320" y="440" width="20" height="30" as="geometry" />
        </mxCell>
        <mxCell id="SwMHotPxSxvVI6vXc5Ti-112" value="-" style="text;html=1;align=center;verticalAlign=middle;resizable=0;points=[];autosize=1;strokeColor=none;fillColor=none;fontSize=18;" parent="1" vertex="1">
          <mxGeometry x="320" y="480" width="20" height="30" as="geometry" />
        </mxCell>
        <mxCell id="SwMHotPxSxvVI6vXc5Ti-113" value="-" style="text;html=1;align=center;verticalAlign=middle;resizable=0;points=[];autosize=1;strokeColor=none;fillColor=none;fontSize=18;" parent="1" vertex="1">
          <mxGeometry x="320" y="520" width="20" height="30" as="geometry" />
        </mxCell>
        <mxCell id="SwMHotPxSxvVI6vXc5Ti-114" value="-" style="text;html=1;align=center;verticalAlign=middle;resizable=0;points=[];autosize=1;strokeColor=none;fillColor=none;fontSize=18;" parent="1" vertex="1">
          <mxGeometry x="320" y="400" width="20" height="30" as="geometry" />
        </mxCell>
        <mxCell id="SwMHotPxSxvVI6vXc5Ti-115" value="-" style="text;html=1;align=center;verticalAlign=middle;resizable=0;points=[];autosize=1;strokeColor=none;fillColor=none;fontSize=18;" parent="1" vertex="1">
          <mxGeometry x="320" y="640" width="20" height="30" as="geometry" />
        </mxCell>
        <mxCell id="SwMHotPxSxvVI6vXc5Ti-116" value="-" style="text;html=1;align=center;verticalAlign=middle;resizable=0;points=[];autosize=1;strokeColor=none;fillColor=none;fontSize=18;" parent="1" vertex="1">
          <mxGeometry x="320" y="600" width="20" height="30" as="geometry" />
        </mxCell>
        <mxCell id="SwMHotPxSxvVI6vXc5Ti-117" value="-" style="text;html=1;align=center;verticalAlign=middle;resizable=0;points=[];autosize=1;strokeColor=none;fillColor=none;fontSize=18;" parent="1" vertex="1">
          <mxGeometry x="320" y="560" width="20" height="30" as="geometry" />
        </mxCell>
        <mxCell id="SwMHotPxSxvVI6vXc5Ti-118" value="-" style="text;html=1;align=center;verticalAlign=middle;resizable=0;points=[];autosize=1;strokeColor=none;fillColor=none;fontSize=18;" parent="1" vertex="1">
          <mxGeometry x="320" y="760" width="20" height="30" as="geometry" />
        </mxCell>
        <mxCell id="SwMHotPxSxvVI6vXc5Ti-119" value="-" style="text;html=1;align=center;verticalAlign=middle;resizable=0;points=[];autosize=1;strokeColor=none;fillColor=none;fontSize=18;" parent="1" vertex="1">
          <mxGeometry x="320" y="720" width="20" height="30" as="geometry" />
        </mxCell>
        <mxCell id="SwMHotPxSxvVI6vXc5Ti-120" value="-" style="text;html=1;align=center;verticalAlign=middle;resizable=0;points=[];autosize=1;strokeColor=none;fillColor=none;fontSize=18;" parent="1" vertex="1">
          <mxGeometry x="320" y="680" width="20" height="30" as="geometry" />
        </mxCell>
        <mxCell id="SwMHotPxSxvVI6vXc5Ti-121" value="-" style="text;html=1;align=center;verticalAlign=middle;resizable=0;points=[];autosize=1;strokeColor=none;fillColor=none;fontSize=18;" parent="1" vertex="1">
          <mxGeometry x="320" y="800" width="20" height="30" as="geometry" />
        </mxCell>
      </root>
    </mxGraphModel>
  </diagram>
</mxfile>
